STARTFONT 2.1
FONT -sun-arioso-bold-r-normal--17-170-75-75-p-92-adobe-fontspecific
SIZE 17 75 75
FONTBOUNDINGBOX 22 21 -3 -5

STARTPROPERTIES 28
FOUNDRY "sun"
FAMILY_NAME "arioso"
WEIGHT_NAME "bold"
SLANT "r"
SETWIDTH_NAME "normal"
ADD_STYLE_NAME ""
PIXEL_SIZE 18
POINT_SIZE 170
RESOLUTION_X 75
RESOLUTION_Y 75
SPACING "p"
AVERAGE_WIDTH 92
CHARSET_REGISTRY "adobe"
CHARSET_ENCODING "fontspecific"
COPYRIGHT "© 1999 Sun Microsystems, Inc."
RAW_PIXELSIZE 1000
RAW_POINTSIZE 964
RAW_ASCENT 906
RAW_DESCENT 247
RAW_AVERAGE_WIDTH 5188
FACE_NAME "AriosoBold"
_XMBDFED_INFO "Edited with xmbdfed 2.4."
WEIGHT 10
X_HEIGHT -1
QUAD_WIDTH 9
DEFAULT_CHAR 4
FONT_DESCENT 5
FONT_ASCENT 16
ENDPROPERTIES

CHARS 195

STARTCHAR char32
ENCODING 32
SWIDTH 20 0
DWIDTH 4 0
BBX 0 0 0 0
BITMAP
ENDCHAR

STARTCHAR char33
ENCODING 33
SWIDTH 30 0
DWIDTH 6 0
BBX 6 12 1 0
BITMAP
1C
18
18
10
10
20
20
20
00
00
C0
C0
ENDCHAR

STARTCHAR char34
ENCODING 34
SWIDTH 35 0
DWIDTH 7 0
BBX 6 5 2 7
BITMAP
6C
6C
48
90
10
ENDCHAR

STARTCHAR char35
ENCODING 35
SWIDTH 50 0
DWIDTH 10 0
BBX 8 13 1 0
BITMAP
12
32
22
22
FF
24
24
24
FF
44
44
4C
48
ENDCHAR

STARTCHAR char36
ENCODING 36
SWIDTH 50 0
DWIDTH 10 0
BBX 10 15 0 -2
BITMAP
0100
1FC0
1240
3200
3400
3C00
1E00
0F00
0B80
0980
9100
9300
7C00
2000
2000
ENDCHAR

STARTCHAR char37
ENCODING 37
SWIDTH 14 0
DWIDTH 13 0
BBX 13 11 0 0
BITMAP
1020
6840
C880
8900
9170
92D8
64D8
0998
1198
21B0
20E0
ENDCHAR

STARTCHAR char38
ENCODING 38
SWIDTH 45 0
DWIDTH 9 0
BBX 8 11 0 0
BITMAP
06
0B
1B
1E
18
3D
65
C7
C7
C7
7A
ENDCHAR

STARTCHAR char39
ENCODING 39
SWIDTH 20 0
DWIDTH 4 0
BBX 4 4 1 8
BITMAP
20
40
C0
E0
ENDCHAR

STARTCHAR char40
ENCODING 40
SWIDTH 30 0
DWIDTH 6 0
BBX 6 16 1 -3
BITMAP
04
08
18
10
30
60
60
C0
C0
C0
80
80
80
80
80
80
ENDCHAR

STARTCHAR char41
ENCODING 41
SWIDTH 30 0
DWIDTH 6 0
BBX 6 15 -1 -3
BITMAP
04
04
04
0C
0C
0C
0C
18
18
18
30
20
60
40
80
ENDCHAR

STARTCHAR char42
ENCODING 42
SWIDTH 30 0
DWIDTH 6 0
BBX 5 6 2 7
BITMAP
10
B8
F0
78
B8
30
ENDCHAR

STARTCHAR char43
ENCODING 43
SWIDTH 4 0
DWIDTH 11 0
BBX 10 10 1 0
BITMAP
0C00
0C00
0C00
0C00
FFC0
0C00
0C00
0C00
0C00
0C00
ENDCHAR

STARTCHAR char44
ENCODING 44
SWIDTH 20 0
DWIDTH 4 0
BBX 3 4 0 -2
BITMAP
60
60
40
80
ENDCHAR

STARTCHAR char45
ENCODING 45
SWIDTH 30 0
DWIDTH 6 0
BBX 6 1 0 3
BITMAP
F8
ENDCHAR

STARTCHAR char46
ENCODING 46
SWIDTH 20 0
DWIDTH 4 0
BBX 2 2 1 0
BITMAP
C0
C0
ENDCHAR

STARTCHAR char47
ENCODING 47
SWIDTH 40 0
DWIDTH 8 0
BBX 8 12 0 0
BITMAP
01
02
02
04
08
08
10
30
20
40
40
80
ENDCHAR

STARTCHAR char48
ENCODING 48
SWIDTH 50 0
DWIDTH 10 0
BBX 8 11 1 0
BITMAP
1C
32
63
E3
C3
C3
86
86
8C
8C
70
ENDCHAR

STARTCHAR char49
ENCODING 49
SWIDTH 50 0
DWIDTH 10 0
BBX 7 11 2 0
BITMAP
04
0C
3C
58
18
30
30
30
60
60
60
ENDCHAR

STARTCHAR char50
ENCODING 50
SWIDTH 50 0
DWIDTH 10 0
BBX 8 11 0 0
BITMAP
0E
13
23
23
22
06
08
30
40
FA
BC
ENDCHAR

STARTCHAR char51
ENCODING 51
SWIDTH 50 0
DWIDTH 10 0
BBX 8 11 0 0
BITMAP
1E
13
03
02
1C
26
06
06
06
8C
F8
ENDCHAR

STARTCHAR char52
ENCODING 52
SWIDTH 50 0
DWIDTH 10 0
BBX 9 11 0 0
BITMAP
0080
0080
0100
0700
0B00
1600
2600
4600
FF00
0C00
0C00
ENDCHAR

STARTCHAR char53
ENCODING 53
SWIDTH 50 0
DWIDTH 10 0
BBX 8 11 0 0
BITMAP
0F
10
10
10
3E
03
03
07
06
8C
78
ENDCHAR

STARTCHAR char54
ENCODING 54
SWIDTH 50 0
DWIDTH 10 0
BBX 9 12 0 0
BITMAP
0080
0100
0600
0C00
1C00
3F00
7100
E300
C300
C300
C600
3C00
ENDCHAR

STARTCHAR char55
ENCODING 55
SWIDTH 50 0
DWIDTH 10 0
BBX 8 11 1 0
BITMAP
3F
7D
42
04
04
08
18
10
30
70
40
ENDCHAR

STARTCHAR char56
ENCODING 56
SWIDTH 50 0
DWIDTH 10 0
BBX 9 11 0 0
BITMAP
0700
1980
1980
1980
1F00
0E00
7700
C300
C300
C200
7C00
ENDCHAR

STARTCHAR char57
ENCODING 57
SWIDTH 50 0
DWIDTH 10 0
BBX 9 12 0 -1
BITMAP
0E00
3100
3180
6180
6380
6300
3600
0C00
0800
3000
4000
8000
ENDCHAR

STARTCHAR char58
ENCODING 58
SWIDTH 25 0
DWIDTH 5 0
BBX 4 7 1 0
BITMAP
30
30
00
00
00
C0
C0
ENDCHAR

STARTCHAR char59
ENCODING 59
SWIDTH 25 0
DWIDTH 5 0
BBX 5 9 0 -2
BITMAP
18
18
00
00
00
70
30
20
40
ENDCHAR

STARTCHAR char60
ENCODING 60
SWIDTH 4 0
DWIDTH 11 0
BBX 9 9 1 0
BITMAP
0080
0700
1C00
7000
8000
6000
1C00
0700
0180
ENDCHAR

STARTCHAR char61
ENCODING 61
SWIDTH 4 0
DWIDTH 11 0
BBX 12 4 0 3
BITMAP
FFF0
0000
0000
FFF0
ENDCHAR

STARTCHAR char62
ENCODING 62
SWIDTH 4 0
DWIDTH 11 0
BBX 9 9 1 0
BITMAP
8000
6000
1C00
0700
0180
0700
1C00
7000
8000
ENDCHAR

STARTCHAR char63
ENCODING 63
SWIDTH 35 0
DWIDTH 7 0
BBX 6 12 2 0
BITMAP
30
48
48
58
30
60
40
80
60
00
C0
C0
ENDCHAR

STARTCHAR char64
ENCODING 64
SWIDTH 39 0
DWIDTH 18 0
BBX 14 13 2 0
BITMAP
07C0
1860
3018
67A8
6CCC
D84C
D84C
D8C8
D890
7FB0
3EC0
1830
0FC0
ENDCHAR

STARTCHAR char65
ENCODING 65
SWIDTH 29 0
DWIDTH 16 0
BBX 17 12 -1 0
BITMAP
000380
000D80
000B00
001300
001600
00FF00
1F2E00
602C00
C04C00
C09C00
C31800
7C1F00
ENDCHAR

STARTCHAR char66
ENCODING 66
SWIDTH 19 0
DWIDTH 14 0
BBX 14 12 -1 0
BITMAP
0FF8
30CC
60CC
418C
C1B0
C1E0
C318
4308
0318
0618
0C30
2FE0
ENDCHAR

STARTCHAR char67
ENCODING 67
SWIDTH 4 0
DWIDTH 11 0
BBX 11 12 0 0
BITMAP
0FC0
1860
3160
6660
6840
D0C0
F180
F300
DC00
C000
4000
3F80
ENDCHAR

STARTCHAR char68
ENCODING 68
SWIDTH 29 0
DWIDTH 16 0
BBX 16 12 -1 0
BITMAP
07FC
1826
3063
60C3
40C3
C1C3
C183
C186
4386
030C
0238
0600
ENDCHAR

STARTCHAR char69
ENCODING 69
SWIDTH 4 0
DWIDTH 11 0
BBX 11 12 0 0
BITMAP
07C0
0640
0CC0
0D00
0C00
0800
3000
6040
C060
C040
C180
7E00
ENDCHAR

STARTCHAR char70
ENCODING 70
SWIDTH 34 0
DWIDTH 17 0
BBX 18 15 -1 -3
BITMAP
07F800
180FC0
200200
200400
400C00
C00800
C0FFC0
C03980
C07800
C07000
407000
00F000
016000
036000
03C000
ENDCHAR

STARTCHAR char71
ENCODING 71
SWIDTH 24 0
DWIDTH 15 0
BBX 16 15 -1 -3
BITMAP
00FE
0306
0604
0C08
1C10
1864
198C
1F1C
1818
F818
18F9
1F36
0038
03C0
07C0
ENDCHAR

STARTCHAR char72
ENCODING 72
SWIDTH 29 0
DWIDTH 16 0
BBX 17 13 0 0
BITMAP
070300
3FC580
C04D00
809E00
01B800
03F000
036180
076180
1E6180
26C100
44C200
C8C400
F0F800
ENDCHAR

STARTCHAR char73
ENCODING 73
SWIDTH 4 0
DWIDTH 11 0
BBX 13 12 -1 0
BITMAP
1FF8
2010
2030
0030
0070
0060
0060
3FE0
40E0
C198
C300
3E00
ENDCHAR

STARTCHAR char74
ENCODING 74
SWIDTH 4 0
DWIDTH 11 0
BBX 13 16 -1 -3
BITMAP
00F8
0710
0830
3030
2060
6060
40E0
40C0
40C0
C1F0
C180
0F80
1300
6600
CC00
7800
ENDCHAR

STARTCHAR char75
ENCODING 75
SWIDTH 34 0
DWIDTH 17 0
BBX 18 12 -1 0
BITMAP
03F000
1FF980
101B00
003300
003600
003800
006000
006000
007800
00DC00
418C00
3E07C0
ENDCHAR

STARTCHAR char76
ENCODING 76
SWIDTH 14 0
DWIDTH 13 0
BBX 15 12 -1 0
BITMAP
003E
0066
00C6
01C6
018C
0188
01B0
0340
0300
3E00
DFE0
F0FC
ENDCHAR

STARTCHAR char77
ENCODING 77
SWIDTH 44 0
DWIDTH 19 0
BBX 20 12 -1 0
BITMAP
001E70
002EE0
006F60
004EC0
00DEC0
009DC0
01BD80
013980
033B00
027300
846300
7803E0
ENDCHAR

STARTCHAR char78
ENCODING 78
SWIDTH 29 0
DWIDTH 16 0
BBX 17 12 -1 0
BITMAP
07C380
186F00
307100
606600
40E600
C1CC00
C1CC00
C2DC00
C59800
4D9800
0F1800
0E0F00
ENDCHAR

STARTCHAR char79
ENCODING 79
SWIDTH 9 0
DWIDTH 12 0
BBX 11 12 0 0
BITMAP
0BC0
1460
3460
6860
6860
C060
C0E0
C0C0
C0C0
C180
4300
3E00
ENDCHAR

STARTCHAR char80
ENCODING 80
SWIDTH 29 0
DWIDTH 16 0
BBX 17 15 -1 -3
BITMAP
07FE00
182300
304180
60C180
C1C180
C18180
C18380
C30300
430700
030E00
061800
07F000
0E0000
0C0000
0C0000
ENDCHAR

STARTCHAR char81
ENCODING 81
SWIDTH 4 0
DWIDTH 11 0
BBX 13 15 -1 -3
BITMAP
0FC0
1860
3060
7060
E060
E060
E0C0
40C0
4180
2100
3E00
FF88
01C8
00F0
0060
ENDCHAR

STARTCHAR char82
ENCODING 82
SWIDTH 24 0
DWIDTH 15 0
BBX 16 12 -1 0
BITMAP
03FC
0846
10C6
2186
4186
C18C
C318
C370
C380
46C0
0663
043C
ENDCHAR

STARTCHAR char83
ENCODING 83
SWIDTH 50 0
DWIDTH 10 0
BBX 11 12 0 0
BITMAP
07C0
0CC0
0C80
0E00
0600
0700
0300
3F00
C1E0
C300
C300
7C00
ENDCHAR

STARTCHAR char84
ENCODING 84
SWIDTH 9 0
DWIDTH 12 0
BBX 15 12 -1 0
BITMAP
1FFE
2008
4010
4030
C030
C030
C060
4E60
1060
20C0
6180
1F00
ENDCHAR

STARTCHAR char85
ENCODING 85
SWIDTH 29 0
DWIDTH 16 0
BBX 17 12 -1 0
BITMAP
07E300
186380
30E700
60C700
41CE00
C19E00
C31C00
C32C00
465800
465800
049000
071F00
ENDCHAR

STARTCHAR char86
ENCODING 86
SWIDTH 29 0
DWIDTH 16 0
BBX 17 12 -1 0
BITMAP
03F380
0C2180
304180
60C180
418180
C18300
C38300
C30200
430600
430400
031800
01E000
ENDCHAR

STARTCHAR char87
ENCODING 87
SWIDTH 44 0
DWIDTH 19 0
BBX 20 13 -1 0
BITMAP
1FC240
3FC430
408C30
409430
019830
032830
033860
075060
06B060
06B0C0
053080
063300
061C00
ENDCHAR

STARTCHAR char88
ENCODING 88
SWIDTH 29 0
DWIDTH 16 0
BBX 18 13 -1 0
BITMAP
000080
07F340
183400
207800
607000
C0E000
C3F980
C0E180
41C180
03C100
058300
498600
70F800
ENDCHAR

STARTCHAR char89
ENCODING 89
SWIDTH 24 0
DWIDTH 15 0
BBX 17 15 -1 -3
BITMAP
0FC300
38C780
61C700
C18F00
C38E00
C31600
C71C00
C72C00
4F4C00
4E9800
0F1800
0FF000
033000
066000
078000
ENDCHAR

STARTCHAR char90
ENCODING 90
SWIDTH 24 0
DWIDTH 15 0
BBX 17 12 -1 0
BITMAP
03FC80
048300
08C600
08CC00
109C00
30FE00
313000
336000
1CC000
010000
7FC180
F3FE00
ENDCHAR

STARTCHAR char91
ENCODING 91
SWIDTH 35 0
DWIDTH 7 0
BBX 9 15 -1 -3
BITMAP
0780
0E00
0C00
0C00
1800
1800
1800
3000
3000
6000
6000
6000
C000
C000
E000
ENDCHAR

STARTCHAR char92
ENCODING 92
SWIDTH 25 0
DWIDTH 5 0
BBX 5 13 0 0
BITMAP
80
80
40
40
40
60
20
20
30
10
10
18
08
ENDCHAR

STARTCHAR char93
ENCODING 93
SWIDTH 35 0
DWIDTH 7 0
BBX 8 17 -2 -4
BITMAP
0E
03
06
06
06
0C
0C
0C
18
18
18
30
30
70
60
60
E0
ENDCHAR

STARTCHAR char94
ENCODING 94
SWIDTH 0 0
DWIDTH 0 0
BBX 4 3 0 13
BITMAP
60
70
90
ENDCHAR

STARTCHAR char95
ENCODING 95
SWIDTH 50 0
DWIDTH 10 0
BBX 10 1 0 -2
BITMAP
FFC0
ENDCHAR

STARTCHAR char96
ENCODING 96
SWIDTH 0 0
DWIDTH 0 0
BBX 4 3 -1 9
BITMAP
E0
60
30
ENDCHAR

STARTCHAR char97
ENCODING 97
SWIDTH 45 0
DWIDTH 9 0
BBX 7 7 0 0
BITMAP
1C
22
46
C4
CC
CC
F6
ENDCHAR

STARTCHAR char98
ENCODING 98
SWIDTH 40 0
DWIDTH 8 0
BBX 8 12 0 0
BITMAP
18
18
30
30
3C
3E
7E
6E
44
CC
DB
E0
ENDCHAR

STARTCHAR char99
ENCODING 99
SWIDTH 30 0
DWIDTH 6 0
BBX 7 7 0 0
BITMAP
1E
26
6C
D8
C0
C0
78
ENDCHAR

STARTCHAR char100
ENCODING 100
SWIDTH 45 0
DWIDTH 9 0
BBX 10 12 -1 0
BITMAP
00C0
00C0
0080
0180
0180
1F00
3300
6300
E200
E600
C600
FF80
ENDCHAR

STARTCHAR char101
ENCODING 101
SWIDTH 30 0
DWIDTH 6 0
BBX 6 7 0 0
BITMAP
3C
6C
68
F0
C0
C0
F8
ENDCHAR

STARTCHAR char102
ENCODING 102
SWIDTH 30 0
DWIDTH 6 0
BBX 8 15 -1 -3
BITMAP
03
05
05
0D
0E
1A
1C
58
F0
F0
F0
7C
60
60
E0
ENDCHAR

STARTCHAR char103
ENCODING 103
SWIDTH 45 0
DWIDTH 9 0
BBX 10 10 -1 -3
BITMAP
1E00
3300
6300
E700
E600
C600
FF80
0C00
7C00
7800
ENDCHAR

STARTCHAR char104
ENCODING 104
SWIDTH 45 0
DWIDTH 9 0
BBX 8 12 0 0
BITMAP
18
18
30
30
30
67
6B
6E
D6
EC
EC
CF
ENDCHAR

STARTCHAR char105
ENCODING 105
SWIDTH 25 0
DWIDTH 5 0
BBX 5 10 0 0
BITMAP
18
18
00
30
60
60
60
C0
C0
F0
ENDCHAR

STARTCHAR char106
ENCODING 106
SWIDTH 30 0
DWIDTH 6 0
BBX 8 13 -1 -3
BITMAP
06
06
00
0C
38
58
98
38
F7
B0
E0
A0
E0
ENDCHAR

STARTCHAR char107
ENCODING 107
SWIDTH 45 0
DWIDTH 9 0
BBX 8 12 0 0
BITMAP
18
18
30
30
20
67
7B
D6
DC
F8
AC
C7
ENDCHAR

STARTCHAR char108
ENCODING 108
SWIDTH 25 0
DWIDTH 5 0
BBX 5 12 0 0
BITMAP
18
18
10
30
30
20
60
60
40
C0
C0
F0
ENDCHAR

STARTCHAR char109
ENCODING 109
SWIDTH 14 0
DWIDTH 13 0
BBX 14 7 -1 0
BITMAP
0738
3758
6FB8
76B0
FF70
EE60
EE78
ENDCHAR

STARTCHAR char110
ENCODING 110
SWIDTH 45 0
DWIDTH 9 0
BBX 8 7 0 0
BITMAP
37
6F
76
D6
EC
EC
CF
ENDCHAR

STARTCHAR char111
ENCODING 111
SWIDTH 40 0
DWIDTH 8 0
BBX 8 8 0 0
BITMAP
0C
3C
7C
4C
CC
CF
D8
70
ENDCHAR

STARTCHAR char112
ENCODING 112
SWIDTH 45 0
DWIDTH 9 0
BBX 10 10 -1 -3
BITMAP
0E00
3980
5980
5B80
7300
F200
FC40
7380
6000
6000
ENDCHAR

STARTCHAR char113
ENCODING 113
SWIDTH 45 0
DWIDTH 9 0
BBX 10 10 -1 -3
BITMAP
1F80
3300
6300
E600
C600
C400
7D80
0A00
0A00
0C00
ENDCHAR

STARTCHAR char114
ENCODING 114
SWIDTH 30 0
DWIDTH 6 0
BBX 7 7 0 0
BITMAP
2C
68
70
E8
EC
E0
C0
ENDCHAR

STARTCHAR char115
ENCODING 115
SWIDTH 30 0
DWIDTH 6 0
BBX 6 7 0 0
BITMAP
38
30
30
30
F0
A0
F8
ENDCHAR

STARTCHAR char116
ENCODING 116
SWIDTH 25 0
DWIDTH 5 0
BBX 5 11 0 0
BITMAP
08
10
30
30
78
60
60
40
C0
C0
70
ENDCHAR

STARTCHAR char117
ENCODING 117
SWIDTH 45 0
DWIDTH 9 0
BBX 10 6 -1 0
BITMAP
3300
7300
6300
E600
C600
FB80
ENDCHAR

STARTCHAR char118
ENCODING 118
SWIDTH 45 0
DWIDTH 9 0
BBX 9 8 0 0
BITMAP
0400
2E00
6E00
6E00
4C00
C400
CB80
F000
ENDCHAR

STARTCHAR char119
ENCODING 119
SWIDTH 9 0
DWIDTH 12 0
BBX 13 8 -1 0
BITMAP
0060
31F0
73D0
6350
6660
E620
C658
FF80
ENDCHAR

STARTCHAR char120
ENCODING 120
SWIDTH 45 0
DWIDTH 9 0
BBX 10 7 -1 0
BITMAP
7BC0
4EC0
0F00
1C00
7800
D800
E700
ENDCHAR

STARTCHAR char121
ENCODING 121
SWIDTH 45 0
DWIDTH 9 0
BBX 10 10 -1 -3
BITMAP
2200
7300
6300
6600
E600
C600
FF80
0C00
3C00
7800
ENDCHAR

STARTCHAR char122
ENCODING 122
SWIDTH 35 0
DWIDTH 7 0
BBX 7 7 0 0
BITMAP
7C
4C
78
60
C0
F0
9C
ENDCHAR

STARTCHAR char123
ENCODING 123
SWIDTH 30 0
DWIDTH 6 0
BBX 4 16 1 -3
BITMAP
30
60
60
60
60
60
60
40
80
40
60
60
60
60
60
30
ENDCHAR

STARTCHAR char124
ENCODING 124
SWIDTH 25 0
DWIDTH 5 0
BBX 2 13 1 0
BITMAP
C0
C0
C0
C0
C0
C0
C0
C0
C0
C0
C0
C0
C0
ENDCHAR

STARTCHAR char125
ENCODING 125
SWIDTH 30 0
DWIDTH 6 0
BBX 4 16 1 -3
BITMAP
C0
40
60
60
60
60
60
20
10
60
60
60
60
60
60
C0
ENDCHAR

STARTCHAR char126
ENCODING 126
SWIDTH 0 0
DWIDTH 0 0
BBX 7 2 -1 14
BITMAP
20
5C
ENDCHAR

STARTCHAR char128
ENCODING 128
SWIDTH 4 0
DWIDTH 11 0
BBX 14 12 -3 0
BITMAP
01FC
2304
1E00
6E00
1CC0
1F20
18C0
1820
1800
1800
0800
07F0
ENDCHAR

STARTCHAR char130
ENCODING 130
SWIDTH 20 0
DWIDTH 4 0
BBX 3 4 0 -2
BITMAP
60
60
40
40
ENDCHAR

STARTCHAR char131
ENCODING 131
SWIDTH 0 0
DWIDTH 0 0
BBX 4 3 0 13
BITMAP
60
70
90
ENDCHAR

STARTCHAR char132
ENCODING 132
SWIDTH 35 0
DWIDTH 7 0
BBX 6 4 0 -2
BITMAP
6C
6C
48
90
ENDCHAR

STARTCHAR char133
ENCODING 133
SWIDTH 39 0
DWIDTH 18 0
BBX 14 2 2 0
BITMAP
C30C
C30C
ENDCHAR

STARTCHAR char134
ENCODING 134
SWIDTH 40 0
DWIDTH 8 0
BBX 7 14 1 -2
BITMAP
0C
08
EE
F6
10
30
30
60
60
40
40
80
80
80
ENDCHAR

STARTCHAR char136
ENCODING 136
SWIDTH 0 0
DWIDTH 0 0
BBX 4 3 -1 9
BITMAP
30
70
90
ENDCHAR

STARTCHAR char139
ENCODING 139
SWIDTH 30 0
DWIDTH 6 0
BBX 2 6 2 2
BITMAP
40
40
80
80
C0
40
ENDCHAR

STARTCHAR char140
ENCODING 140
SWIDTH 39 0
DWIDTH 18 0
BBX 19 13 -1 0
BITMAP
008000
0BE7C0
1C3640
3436C0
243480
647400
607800
C07000
C06040
C0C060
C0C060
41C0C0
3E7F00
ENDCHAR

STARTCHAR char145
ENCODING 145
SWIDTH 20 0
DWIDTH 4 0
BBX 4 4 1 8
BITMAP
20
40
C0
E0
ENDCHAR

STARTCHAR char146
ENCODING 146
SWIDTH 20 0
DWIDTH 4 0
BBX 3 4 2 8
BITMAP
60
60
40
80
ENDCHAR

STARTCHAR char147
ENCODING 147
SWIDTH 35 0
DWIDTH 7 0
BBX 6 4 2 8
BITMAP
48
D0
B0
F8
ENDCHAR

STARTCHAR char148
ENCODING 148
SWIDTH 35 0
DWIDTH 7 0
BBX 6 5 2 7
BITMAP
6C
6C
48
90
10
ENDCHAR

STARTCHAR char149
ENCODING 149
SWIDTH 30 0
DWIDTH 6 0
BBX 5 5 0 4
BITMAP
70
F8
F8
F8
70
ENDCHAR

STARTCHAR char150
ENCODING 150
SWIDTH 50 0
DWIDTH 10 0
BBX 8 1 0 3
BITMAP
FF
ENDCHAR

STARTCHAR char151
ENCODING 151
SWIDTH 4 0
DWIDTH 11 0
BBX 12 1 0 5
BITMAP
FFF0
ENDCHAR

STARTCHAR char152
ENCODING 152
SWIDTH 0 0
DWIDTH 0 0
BBX 6 2 -1 9
BITMAP
FC
18
ENDCHAR

STARTCHAR char153
ENCODING 153
SWIDTH 24 0
DWIDTH 15 0
BBX 14 7 0 5
BITMAP
FF0C
BD0C
3194
3194
31EC
316C
735C
ENDCHAR

STARTCHAR char155
ENCODING 155
SWIDTH 30 0
DWIDTH 6 0
BBX 2 6 2 2
BITMAP
80
80
40
40
C0
80
ENDCHAR

STARTCHAR char156
ENCODING 156
SWIDTH 50 0
DWIDTH 10 0
BBX 11 7 -1 0
BITMAP
1FE0
3360
6240
E780
C700
CE00
7FC0
ENDCHAR

STARTCHAR char159
ENCODING 159
SWIDTH 24 0
DWIDTH 15 0
BBX 17 18 -1 -3
BITMAP
00D800
00D800
000000
0FC300
38C780
61C700
C18700
C38E00
C30E00
C71400
C72C00
4F4C00
4E8800
0F1800
0FF000
033000
066000
078000
ENDCHAR

STARTCHAR char160
ENCODING 160
SWIDTH 20 0
DWIDTH 4 0
BBX 0 0 0 0
BITMAP
ENDCHAR

STARTCHAR char161
ENCODING 161
SWIDTH 30 0
DWIDTH 6 0
BBX 5 12 0 0
BITMAP
18
18
00
00
20
20
20
60
60
E0
E0
40
ENDCHAR

STARTCHAR char162
ENCODING 162
SWIDTH 30 0
DWIDTH 6 0
BBX 7 11 0 -2
BITMAP
08
08
16
36
7C
D8
D0
E0
F8
20
20
ENDCHAR

STARTCHAR char163
ENCODING 163
SWIDTH 9 0
DWIDTH 12 0
BBX 13 13 -1 0
BITMAP
00C0
0130
0218
0618
0600
0600
1FC0
0600
0200
0200
3FE0
FFC0
73C0
ENDCHAR

STARTCHAR char164
ENCODING 164
SWIDTH 0 0
DWIDTH 0 0
BBX 4 3 1 13
BITMAP
70
60
80
ENDCHAR

STARTCHAR char165
ENCODING 165
SWIDTH 0 0
DWIDTH 0 0
BBX 5 3 0 13
BITMAP
90
50
60
ENDCHAR

STARTCHAR char167
ENCODING 167
SWIDTH 40 0
DWIDTH 8 0
BBX 11 17 -2 -5
BITMAP
0180
0660
0C60
0E40
0E00
0F00
1700
3380
3380
3180
1B00
1C00
0C00
4C00
CC00
C800
7000
ENDCHAR

STARTCHAR char168
ENCODING 168
SWIDTH 0 0
DWIDTH 0 0
BBX 5 2 -1 9
BITMAP
D8
D8
ENDCHAR

STARTCHAR char169
ENCODING 169
SWIDTH 14 0
DWIDTH 13 0
BBX 13 12 0 0
BITMAP
0F00
10C0
2020
47B0
C890
D818
D818
D818
4890
4720
3040
0F80
ENDCHAR

STARTCHAR char170
ENCODING 170
SWIDTH 0 0
DWIDTH 0 0
BBX 5 2 0 13
BITMAP
D8
D8
ENDCHAR

STARTCHAR char171
ENCODING 171
SWIDTH 40 0
DWIDTH 8 0
BBX 7 4 0 2
BITMAP
24
48
D8
6C
ENDCHAR

STARTCHAR char172
ENCODING 172
SWIDTH 9 0
DWIDTH 12 0
BBX 12 5 0 0
BITMAP
FFF0
0030
0030
0030
0030
ENDCHAR

STARTCHAR char174
ENCODING 174
SWIDTH 14 0
DWIDTH 13 0
BBX 13 12 0 0
BITMAP
0700
18C0
2020
4F30
4D90
C998
CE18
CF18
4D90
5DE0
2060
1F80
ENDCHAR

STARTCHAR char176
ENCODING 176
SWIDTH 20 0
DWIDTH 4 0
BBX 6 6 1 6
BITMAP
30
48
CC
CC
48
30
ENDCHAR

STARTCHAR char177
ENCODING 177
SWIDTH 45 0
DWIDTH 9 0
BBX 9 11 0 0
BITMAP
1800
1800
1800
1800
FF80
1800
1800
1800
1800
0000
FF80
ENDCHAR

STARTCHAR char180
ENCODING 180
SWIDTH 0 0
DWIDTH 0 0
BBX 5 3 0 9
BITMAP
30
60
40
ENDCHAR

STARTCHAR char182
ENCODING 182
SWIDTH 9 0
DWIDTH 12 0
BBX 8 15 2 -3
BITMAP
7F
F6
F6
F6
F6
76
36
36
36
36
36
36
36
36
36
ENDCHAR

STARTCHAR char183
ENCODING 183
SWIDTH 15 0
DWIDTH 3 0
BBX 2 2 1 4
BITMAP
C0
C0
ENDCHAR

STARTCHAR char184
ENCODING 184
SWIDTH 0 0
DWIDTH 0 0
BBX 3 3 -3 -3
BITMAP
60
60
80
ENDCHAR

STARTCHAR char186
ENCODING 186
SWIDTH 0 0
DWIDTH 0 0
BBX 7 2 -1 14
BITMAP
20
5C
ENDCHAR

STARTCHAR char187
ENCODING 187
SWIDTH 40 0
DWIDTH 8 0
BBX 7 4 0 2
BITMAP
6C
36
24
48
ENDCHAR

STARTCHAR char191
ENCODING 191
SWIDTH 35 0
DWIDTH 7 0
BBX 7 12 -1 0
BITMAP
06
06
00
0C
02
0E
1C
38
72
E2
C4
78
ENDCHAR

STARTCHAR char192
ENCODING 192
SWIDTH 29 0
DWIDTH 16 0
BBX 17 16 -1 0
BITMAP
00E000
006000
001000
000000
000780
000780
000B00
001700
001600
00FF00
1F2E00
602C00
C04C00
C09C00
C31800
7C1F00
ENDCHAR

STARTCHAR char193
ENCODING 193
SWIDTH 29 0
DWIDTH 16 0
BBX 17 16 -1 0
BITMAP
003800
003000
006000
000100
000780
000780
000B00
001700
001600
00FF00
1F2E00
602C00
C04C00
C09C00
C31800
7C1F00
ENDCHAR

STARTCHAR char194
ENCODING 194
SWIDTH 29 0
DWIDTH 16 0
BBX 17 16 -1 0
BITMAP
002000
007000
009000
000100
000780
000780
000B00
001700
001600
00FF00
1F2E00
602C00
C04C00
C09C00
C31800
7C1F00
ENDCHAR

STARTCHAR char195
ENCODING 195
SWIDTH 29 0
DWIDTH 16 0
BBX 17 16 -1 0
BITMAP
004000
00B800
000000
000100
000780
000780
000B00
001700
001600
00FF00
1F2E00
602C00
C04C00
C09C00
C31800
7C1F00
ENDCHAR

STARTCHAR char196
ENCODING 196
SWIDTH 29 0
DWIDTH 16 0
BBX 19 15 -1 0
BITMAP
000360
000360
000100
000780
000580
000B00
001700
001600
00FF00
1F2E00
602C00
C04C00
C09C00
C31800
7C1F00
ENDCHAR

STARTCHAR char197
ENCODING 197
SWIDTH 29 0
DWIDTH 16 0
BBX 18 16 -1 0
BITMAP
0003C0
0003C0
0003C0
000100
000780
000580
000B00
001200
001600
00FF00
1F2E00
602E00
C04C00
C09C00
C31800
7C1F00
ENDCHAR

STARTCHAR char198
ENCODING 198
SWIDTH 44 0
DWIDTH 19 0
BBX 20 13 -1 0
BITMAP
0004F0
003DF0
002DB0
003F30
005B60
005B40
00F100
1F3E00
613820
416030
C26020
C46040
783F80
ENDCHAR

STARTCHAR char199
ENCODING 199
SWIDTH 4 0
DWIDTH 11 0
BBX 11 15 0 -3
BITMAP
0FC0
1860
3160
6660
6840
C8C0
D180
D300
DE00
C000
4000
2780
1800
1800
2000
ENDCHAR

STARTCHAR char200
ENCODING 200
SWIDTH 4 0
DWIDTH 11 0
BBX 11 16 0 0
BITMAP
0600
0300
0100
0000
07C0
0640
0CC0
0D00
0C00
0800
3000
6040
C060
C040
C180
7E00
ENDCHAR

STARTCHAR char201
ENCODING 201
SWIDTH 4 0
DWIDTH 11 0
BBX 11 16 0 0
BITMAP
01C0
0180
0200
0000
07C0
0640
0CC0
0D00
0C00
0800
3000
6040
C060
C040
C180
7E00
ENDCHAR

STARTCHAR char202
ENCODING 202
SWIDTH 4 0
DWIDTH 11 0
BBX 11 16 0 0
BITMAP
0300
0500
0480
0000
07C0
0640
0CC0
0D00
0C00
0800
3000
6040
C060
C040
C180
7E00
ENDCHAR

STARTCHAR char203
ENCODING 203
SWIDTH 4 0
DWIDTH 11 0
BBX 11 15 0 0
BITMAP
0780
0780
0000
03C0
06C0
0CC0
0C80
0C00
0800
3000
6040
C060
C040
C180
7E00
ENDCHAR

STARTCHAR char204
ENCODING 204
SWIDTH 4 0
DWIDTH 11 0
BBX 13 16 -1 0
BITMAP
0380
0180
00C0
0100
1FF8
2010
2030
0030
0070
0060
0060
3FE0
40E0
C198
C300
3E00
ENDCHAR

STARTCHAR char205
ENCODING 205
SWIDTH 4 0
DWIDTH 11 0
BBX 13 16 -1 0
BITMAP
00E0
00C0
0100
0300
1FF8
2010
2030
0030
0070
0060
0060
3FE0
40E0
C198
C300
3E00
ENDCHAR

STARTCHAR char206
ENCODING 206
SWIDTH 4 0
DWIDTH 11 0
BBX 13 16 -1 0
BITMAP
0180
02C0
0240
0100
1FF8
2010
2030
0030
0070
0060
0060
3FE0
40E0
C198
C300
3E00
ENDCHAR

STARTCHAR char207
ENCODING 207
SWIDTH 4 0
DWIDTH 11 0
BBX 13 15 -1 0
BITMAP
0360
0360
0100
1FF8
2010
2010
0030
0030
0060
0060
3FE0
40E0
C1D8
C380
3E00
ENDCHAR

STARTCHAR char209
ENCODING 209
SWIDTH 29 0
DWIDTH 16 0
BBX 17 16 -1 0
BITMAP
004000
00B800
000000
000000
07C380
186F00
307100
606600
40E600
C1CC00
C1CC00
C2DC00
C59800
4D9800
0F1800
0E0F00
ENDCHAR

STARTCHAR char210
ENCODING 210
SWIDTH 9 0
DWIDTH 12 0
BBX 11 16 0 0
BITMAP
0700
0100
0080
0000
0BC0
1460
3460
6860
6860
C060
C0E0
C0C0
C0C0
C180
4300
3E00
ENDCHAR

STARTCHAR char211
ENCODING 211
SWIDTH 9 0
DWIDTH 12 0
BBX 11 16 0 0
BITMAP
01C0
0180
0300
0000
0BC0
1460
3460
6860
6860
C060
C0E0
C0C0
C0C0
C180
4300
3E00
ENDCHAR

STARTCHAR char212
ENCODING 212
SWIDTH 9 0
DWIDTH 12 0
BBX 11 16 0 0
BITMAP
0180
0380
0480
0000
0BC0
1460
3460
6860
6860
C060
C0E0
C0C0
C0C0
C180
4300
3E00
ENDCHAR

STARTCHAR char213
ENCODING 213
SWIDTH 9 0
DWIDTH 12 0
BBX 11 15 0 0
BITMAP
0760
0080
0000
0BC0
1460
3460
6860
6860
C060
C0E0
C0C0
C0C0
C180
4300
3E00
ENDCHAR

STARTCHAR char214
ENCODING 214
SWIDTH 9 0
DWIDTH 12 0
BBX 11 15 0 0
BITMAP
06C0
06C0
0000
0FC0
1460
3460
6860
6860
C060
C0E0
C0C0
C1C0
C180
4300
3C00
ENDCHAR

STARTCHAR char216
ENCODING 216
SWIDTH 9 0
DWIDTH 12 0
BBX 11 13 0 0
BITMAP
0020
0BE0
1460
34E0
6960
6A60
C460
C8E0
C8C0
D0C0
E180
4300
BE00
ENDCHAR

STARTCHAR char217
ENCODING 217
SWIDTH 29 0
DWIDTH 16 0
BBX 17 16 -1 0
BITMAP
00E000
006000
003000
000000
07E300
186380
30E700
60C700
41CE00
C19E00
C31C00
C32C00
465800
465800
049000
071F00
ENDCHAR

STARTCHAR char218
ENCODING 218
SWIDTH 29 0
DWIDTH 16 0
BBX 17 16 -1 0
BITMAP
003800
003000
004000
000000
07E300
186380
30E700
60C700
41CE00
C19E00
C31C00
C32C00
465800
465800
049000
071F00
ENDCHAR

STARTCHAR char219
ENCODING 219
SWIDTH 29 0
DWIDTH 16 0
BBX 17 16 -1 0
BITMAP
006000
00F000
009000
000000
07E300
186380
30E700
60C700
41CE00
C19E00
C31C00
C32C00
465800
465800
049000
071F00
ENDCHAR

STARTCHAR char220
ENCODING 220
SWIDTH 29 0
DWIDTH 16 0
BBX 18 15 -1 0
BITMAP
001B00
001B00
000000
07E1C0
186700
30E700
60C700
41CE00
C19E00
C39C00
C32C00
463800
465800
069800
071F00
ENDCHAR

STARTCHAR char223
ENCODING 223
SWIDTH 4 0
DWIDTH 11 0
BBX 12 15 -1 -3
BITMAP
03C0
04C0
0D80
0900
1A00
1A00
1180
30C0
30C0
3EC0
E1B0
FE00
6000
6000
4000
ENDCHAR

STARTCHAR char224
ENCODING 224
SWIDTH 45 0
DWIDTH 9 0
BBX 7 12 0 0
BITMAP
1C
0C
06
00
00
1C
22
46
C4
CC
CC
F6
ENDCHAR

STARTCHAR char225
ENCODING 225
SWIDTH 45 0
DWIDTH 9 0
BBX 8 12 0 0
BITMAP
03
07
06
00
00
1C
22
46
C4
CC
CC
F6
ENDCHAR

STARTCHAR char226
ENCODING 226
SWIDTH 45 0
DWIDTH 9 0
BBX 7 12 0 0
BITMAP
04
0E
12
00
00
1C
22
46
C4
CC
CC
F6
ENDCHAR

STARTCHAR char227
ENCODING 227
SWIDTH 45 0
DWIDTH 9 0
BBX 9 11 0 0
BITMAP
1C80
0300
0000
0000
1C00
2200
4600
C400
CC00
CC00
F600
ENDCHAR

STARTCHAR char228
ENCODING 228
SWIDTH 45 0
DWIDTH 9 0
BBX 8 11 0 0
BITMAP
0F
0F
00
00
1E
26
46
C4
CC
CC
F7
ENDCHAR

STARTCHAR char229
ENCODING 229
SWIDTH 45 0
DWIDTH 9 0
BBX 8 12 0 0
BITMAP
0F
0B
0B
0F
00
1C
26
4E
CC
CC
DC
EF
ENDCHAR

STARTCHAR char230
ENCODING 230
SWIDTH 50 0
DWIDTH 10 0
BBX 11 7 -1 0
BITMAP
1FE0
3360
6340
E380
E700
C600
7BC0
ENDCHAR

STARTCHAR char231
ENCODING 231
SWIDTH 30 0
DWIDTH 6 0
BBX 7 10 0 -3
BITMAP
1E
26
6C
D8
C0
C0
F8
60
60
80
ENDCHAR

STARTCHAR char232
ENCODING 232
SWIDTH 30 0
DWIDTH 6 0
BBX 6 12 0 0
BITMAP
38
18
18
00
00
3C
6C
68
F0
C0
C0
F8
ENDCHAR

STARTCHAR char233
ENCODING 233
SWIDTH 30 0
DWIDTH 6 0
BBX 7 12 0 0
BITMAP
0E
0C
18
00
00
3C
6C
68
F0
C0
C0
F8
ENDCHAR

STARTCHAR char234
ENCODING 234
SWIDTH 30 0
DWIDTH 6 0
BBX 6 12 0 0
BITMAP
0C
1C
24
00
00
3C
6C
68
F0
C0
C0
F8
ENDCHAR

STARTCHAR char235
ENCODING 235
SWIDTH 30 0
DWIDTH 6 0
BBX 7 11 0 0
BITMAP
3E
3E
00
00
3C
6C
68
F0
C0
C0
F8
ENDCHAR

STARTCHAR char236
ENCODING 236
SWIDTH 25 0
DWIDTH 5 0
BBX 5 12 0 0
BITMAP
70
30
18
00
00
30
60
60
40
C0
C0
F0
ENDCHAR

STARTCHAR char237
ENCODING 237
SWIDTH 25 0
DWIDTH 5 0
BBX 7 12 0 0
BITMAP
0C
18
10
00
00
30
60
60
40
C0
C0
F0
ENDCHAR

STARTCHAR char238
ENCODING 238
SWIDTH 25 0
DWIDTH 5 0
BBX 5 12 0 0
BITMAP
18
38
28
00
00
30
60
60
40
C0
C0
F0
ENDCHAR

STARTCHAR char239
ENCODING 239
SWIDTH 25 0
DWIDTH 5 0
BBX 6 11 0 0
BITMAP
2C
2C
00
00
30
60
60
40
C0
C0
F0
ENDCHAR

STARTCHAR char241
ENCODING 241
SWIDTH 45 0
DWIDTH 9 0
BBX 10 11 0 0
BITMAP
0EC0
0300
0000
0000
2700
6F00
7600
D600
EC00
EC00
CF00
ENDCHAR

STARTCHAR char242
ENCODING 242
SWIDTH 40 0
DWIDTH 8 0
BBX 8 12 0 0
BITMAP
18
1C
0C
00
0C
3C
7C
4C
CC
CF
D8
70
ENDCHAR

STARTCHAR char243
ENCODING 243
SWIDTH 40 0
DWIDTH 8 0
BBX 8 12 0 0
BITMAP
07
06
0C
00
0C
3C
7C
4C
CC
CF
D8
70
ENDCHAR

STARTCHAR char244
ENCODING 244
SWIDTH 40 0
DWIDTH 8 0
BBX 8 12 0 0
BITMAP
0C
0C
12
00
0C
3C
7C
4C
CC
CF
D8
70
ENDCHAR

STARTCHAR char245
ENCODING 245
SWIDTH 40 0
DWIDTH 8 0
BBX 8 11 0 0
BITMAP
1F
06
00
0C
3C
7C
4C
C4
CF
D8
70
ENDCHAR

STARTCHAR char246
ENCODING 246
SWIDTH 40 0
DWIDTH 8 0
BBX 8 11 0 0
BITMAP
1E
1E
00
08
2C
2C
4C
C4
C7
C8
F0
ENDCHAR

STARTCHAR char247
ENCODING 247
SWIDTH 45 0
DWIDTH 9 0
BBX 9 7 0 1
BITMAP
1800
1800
0000
FF80
0000
1800
1800
ENDCHAR

STARTCHAR char248
ENCODING 248
SWIDTH 40 0
DWIDTH 8 0
BBX 8 10 0 -1
BITMAP
04
0C
3C
3C
5C
FC
EF
F8
70
40
ENDCHAR

STARTCHAR char249
ENCODING 249
SWIDTH 45 0
DWIDTH 9 0
BBX 8 12 0 0
BITMAP
1C
0C
06
00
00
23
66
66
46
CC
CC
F7
ENDCHAR

STARTCHAR char250
ENCODING 250
SWIDTH 45 0
DWIDTH 9 0
BBX 10 12 -1 0
BITMAP
0180
0180
0200
0000
0000
1180
3300
7300
6300
E600
C600
FB80
ENDCHAR

STARTCHAR char251
ENCODING 251
SWIDTH 45 0
DWIDTH 9 0
BBX 10 12 -1 0
BITMAP
0300
0700
0900
0000
0000
1180
3300
7300
6300
E600
C600
FB80
ENDCHAR

STARTCHAR char252
ENCODING 252
SWIDTH 45 0
DWIDTH 9 0
BBX 10 11 -1 0
BITMAP
0D80
0D80
0000
0000
3180
7300
7300
6300
E600
C600
7F80
ENDCHAR

STARTCHAR char255
ENCODING 255
SWIDTH 45 0
DWIDTH 9 0
BBX 10 14 -1 -3
BITMAP
0D80
0D80
0000
0000
3300
7300
6300
6600
E600
C600
FF80
0C00
3800
7000
ENDCHAR
ENDFONT
